<?xml version="1.0" encoding="UTF-8"?>
<!DOCTYPE svg PUBLIC '-//W3C//DTD SVG 1.1//EN' 'http://www.w3.org/Graphics/SVG/1.1/DTD/svg11.dtd'>
<svg width="524.41" height="372.05" font-family="Liberation Sans" font-size="15.39" xmlns="http://www.w3.org/2000/svg">
 <marker id="d" overflow="visible" orient="auto">
  <path d="m-10 0-4 4 14-4-14-4z" fill-rule="evenodd" stroke="#000" stroke-width=".8pt"/>
 </marker>
 <marker id="c" overflow="visible" orient="auto">
  <path d="m10 0 4-4-14 4 14 4z" fill-rule="evenodd" stroke="#000" stroke-width=".8pt"/>
 </marker>
 <path d="m44.778 5.345v326.83h475.85" fill="none" marker-end="url(#d)" marker-start="url(#c)" stroke="#000" stroke-width="2"/>
 <path d="m421.58 348.28v17.131h-2.598v-17.131h-6.617v-2.133h15.832v2.133zm8.107-.807v-2.352h2.461v2.352zm0 17.938v-14.793h2.461v14.793zm14.861 0v-9.379c0-.72-.046-1.32-.137-1.805-.091-.483-.246-.87-.465-1.162-.21-.301-.488-.51-.834-.629-.346-.128-.77-.191-1.272-.191-.52 0-.989.105-1.408.314-.419.201-.779.497-1.08.889-.292.383-.52.861-.684 1.436-.155.565-.232 1.22-.232 1.955v8.572h-2.447v-11.635c0-.31-.005-.633-.014-.971 0-.346-.005-.67-.014-.971-.009-.31-.018-.574-.027-.793s-.018-.36-.027-.424h2.324c.009.046.018.169.027.369.009.201.018.433.027.697.018.255.032.52.041.793.009.264.014.488.014.67h.041c.219-.428.456-.816.711-1.162s.551-.638.889-.875c.346-.246.738-.433 1.176-.561.447-.137.962-.205 1.545-.205 1.12 0 2.01.223 2.652.67.656.447 1.11 1.16 1.367 2.133h.041c.219-.428.465-.816.738-1.162s.592-.638.957-.875c.365-.246.775-.433 1.231-.561.456-.137.975-.205 1.559-.205.747 0 1.39.1 1.928.301.547.201.993.51 1.34.93.346.419.602.962.766 1.627.164.656.246 1.44.246 2.352v9.857h-2.434v-9.379c0-.72-.046-1.32-.137-1.805-.091-.483-.246-.87-.465-1.162-.21-.301-.488-.51-.834-.629-.346-.128-.77-.191-1.272-.191-.52 0-.989.1-1.408.301-.419.191-.779.479-1.08.861-.292.383-.52.861-.684 1.436-.155.574-.232 1.24-.232 1.996v8.572h-2.434m16.625-6.877c0 .775.078 1.49.232 2.147.164.647.41 1.21.738 1.682.337.465.766.829 1.285 1.094.52.255 1.14.383 1.873.383 1.07 0 1.92-.214 2.557-.643.647-.428 1.08-.971 1.313-1.627l2.16.615c-.155.41-.374.825-.656 1.244-.273.41-.643.784-1.107 1.121-.465.328-1.05.602-1.75.82-.693.21-1.53.314-2.516.314-2.19 0-3.86-.652-5.004-1.955-1.14-1.3-1.71-3.24-1.709-5.811 0-1.39.173-2.56.52-3.514.346-.966.82-1.75 1.422-2.352s1.3-1.03 2.106-1.299c.802-.273 1.66-.41 2.57-.41 1.24 0 2.27.201 3.104.602.839.401 1.51.957 2.01 1.668.51.702.87 1.53 1.08 2.488.219.957.328 1.99.328 3.104v.328h-10.555m8.012-1.887c-.137-1.56-.533-2.69-1.189-3.404-.656-.72-1.6-1.08-2.83-1.08-.41 0-.843.068-1.299.205-.447.128-.861.36-1.244.697s-.706.798-.971 1.381c-.264.574-.415 1.31-.451 2.201zm13.303 1.49c0-1.27.096-2.48.287-3.637.191-1.16.492-2.27.902-3.336.41-1.07.934-2.1 1.572-3.104.638-1 1.4-1.98 2.283-2.939h2.379c-.857.957-1.6 1.94-2.229 2.953-.62 1-1.13 2.04-1.531 3.117-.401 1.07-.702 2.18-.902 3.336-.191 1.16-.287 2.37-.287 3.637 0 1.27.096 2.48.287 3.637.201 1.16.501 2.27.902 3.35s.911 2.11 1.531 3.117c.629 1 1.37 1.98 2.229 2.94h-2.379c-.884-.957-1.65-1.94-2.283-2.94s-1.16-2.04-1.572-3.104c-.41-1.07-.711-2.17-.902-3.322-.191-1.16-.287-2.37-.287-3.65zm20.604 3.186c0 .693-.137 1.31-.41 1.859-.264.538-.652.994-1.162 1.367-.51.365-1.14.647-1.887.848-.738.191-1.59.287-2.543.287-.857 0-1.63-.068-2.324-.205-.684-.128-1.29-.337-1.805-.629-.52-.292-.957-.674-1.313-1.148-.346-.483-.602-1.07-.766-1.764l2.174-.424c.21.793.643 1.38 1.299 1.75.656.365 1.57.547 2.734.547.529 0 1.01-.037 1.449-.109.447-.073.829-.196 1.148-.369.319-.182.565-.419.738-.711.182-.301.273-.67.273-1.107 0-.447-.105-.811-.314-1.094-.21-.292-.501-.533-.875-.725-.374-.191-.829-.355-1.367-.492-.529-.146-1.11-.305-1.75-.479-.592-.155-1.18-.328-1.764-.52-.583-.191-1.11-.442-1.586-.752-.465-.319-.843-.711-1.135-1.176s-.438-1.05-.438-1.75c0-1.35.479-2.37 1.436-3.076.966-.711 2.37-1.07 4.211-1.066 1.63 0 2.93.287 3.883.861.966.574 1.58 1.49 1.832 2.762l-2.215.273c-.082-.383-.232-.702-.451-.957a2.4324 2.4324 0 0 0 -.793-.629c-.31-.164-.661-.278-1.053-.342-.383-.073-.784-.109-1.203-.109-1.11 0-1.93.169-2.461.506-.529.337-.793.848-.793 1.531 0 .401.096.734.287.998.201.255.474.474.82.656.355.173.779.328 1.272.465.492.128 1.03.264 1.627.41.392.1.793.21 1.203.328.41.109.807.246 1.189.41a6.19 6.19 0 0 1 1.094.561c.346.21.647.465.902.766s.456.652.602 1.053c.155.401.232.866.232 1.395m8.6-3.131c0 1.28-.096 2.49-.287 3.65-.191 1.15-.492 2.26-.902 3.322-.41 1.07-.934 2.1-1.572 3.104-.638 1-1.4 1.98-2.283 2.94h-2.379c.857-.957 1.6-1.94 2.215-2.94.629-1 1.14-2.04 1.545-3.117.401-1.08.697-2.19.889-3.35.201-1.16.301-2.37.301-3.637 0-1.27-.1-2.48-.301-3.637-.191-1.16-.488-2.27-.889-3.336-.401-1.08-.916-2.11-1.545-3.117-.62-1.01-1.36-2-2.215-2.953h2.379c.884.957 1.65 1.94 2.283 2.939.638 1 1.16 2.04 1.572 3.104.41 1.07.711 2.18.902 3.336.191 1.16.287 2.37.287 3.637zm-497.709-214.2c1.6 0 3.02.242 4.252.725 1.22.483 2.25 1.14 3.076 1.982.82.839 1.44 1.83 1.873 2.981.419 1.14.629 2.37.629 3.691v7.205h-19.264v-6.371c0-1.49.187-2.85.561-4.102.365-1.26.934-2.34 1.709-3.24.766-.902 1.74-1.6 2.926-2.106 1.18-.51 2.6-.766 4.238-.766m0 2.625c-1.3 0-2.42.187-3.336.561-.93.374-1.69.898-2.283 1.572-.592.674-1.03 1.48-1.299 2.42-.283.939-.424 1.97-.424 3.09v3.705h15.08v-4.293c0-1.01-.164-1.95-.492-2.803-.328-.866-.816-1.61-1.463-2.242-.647-.629-1.45-1.12-2.42-1.477-.966-.355-2.09-.533-3.363-.533m-8.107-5.852h-2.352v-2.461h2.352zm17.938 0h-14.793v-2.461h14.793zm-4.088-17.35c.693 0 1.31.137 1.859.41.538.264.994.652 1.367 1.162.365.51.647 1.14.848 1.887.191.738.287 1.59.287 2.543 0 .857-.068 1.63-.205 2.324-.128.684-.337 1.29-.629 1.805-.292.52-.674.957-1.148 1.313-.483.346-1.07.602-1.764.766l-.424-2.174c.793-.21 1.38-.643 1.75-1.299.365-.656.547-1.57.547-2.734 0-.529-.037-1.01-.109-1.449-.073-.447-.196-.829-.369-1.148-.182-.319-.419-.565-.711-.738-.301-.182-.67-.273-1.107-.273-.447 0-.811.105-1.094.314-.292.21-.533.501-.725.875-.191.374-.355.829-.492 1.367-.146.529-.305 1.11-.479 1.75-.155.592-.328 1.18-.52 1.764-.191.583-.442 1.11-.752 1.586-.319.465-.711.843-1.176 1.135s-1.05.438-1.75.438c-1.35 0-2.37-.479-3.076-1.436-.711-.966-1.07-2.37-1.066-4.211 0-1.63.287-2.93.861-3.883.574-.966 1.49-1.58 2.762-1.832l.273 2.215c-.383.082-.702.232-.957.451-.264.219-.474.483-.629.793-.164.31-.278.661-.342 1.053-.073.383-.109.784-.109 1.203 0 1.11.169 1.93.506 2.461.337.529.848.793 1.531.793.401 0 .734-.096.998-.287.255-.201.474-.474.656-.82.173-.355.328-.779.465-1.272.128-.492.264-1.03.41-1.627.1-.392.21-.793.328-1.203.109-.41.246-.807.41-1.189a6.19 6.19 0 0 1 .561-1.094c.21-.346.465-.647.766-.902s.652-.456 1.053-.602c.401-.155.866-.232 1.395-.232m3.979-8.586c.1.374.178.757.232 1.148.064.383.096.829.096 1.34 0 1.97-1.12 2.95-3.35 2.953h-9.871v1.709h-1.791v-1.805l-3.309-.725v-1.641h3.309v-2.734h1.791v2.734h9.338c.711 0 1.21-.114 1.504-.342.283-.237.424-.643.424-1.217 0-.237-.018-.465-.055-.684-.036-.228-.082-.474-.137-.738h1.818m.383-5.852c0 1.49-.392 2.6-1.176 3.35-.784.747-1.86 1.12-3.227 1.121-.975 0-1.77-.182-2.393-.547-.629-.374-1.12-.857-1.477-1.449-.355-.602-.602-1.29-.738-2.051-.137-.766-.214-1.54-.232-2.338l-.055-3.322h-.807c-.611 0-1.13.064-1.559.191-.428.128-.775.324-1.039.588s-.456.597-.574.998c-.128.392-.191.857-.191 1.395 0 .474.037.902.109 1.285.064.383.187.716.369.998.173.283.415.51.725.684.301.173.684.287 1.148.342l-.232 2.57c-.583-.091-1.12-.264-1.6-.52-.492-.255-.916-.615-1.272-1.08-.355-.474-.629-1.06-.82-1.764-.201-.711-.301-1.57-.301-2.57 0-1.86.428-3.26 1.285-4.197.848-.939 2.08-1.41 3.691-1.408h6.371c.729 0 1.28-.096 1.654-.287.365-.191.547-.556.547-1.094 0-.137-.009-.273-.027-.41s-.041-.269-.068-.396h1.531c.073.31.128.62.164.93.037.301.055.624.055.971 0 .465-.059.866-.178 1.203-.128.328-.314.597-.561.807-.255.21-.565.369-.93.479-.374.109-.807.178-1.299.205v.082c.474.264.902.556 1.285.875.383.31.711.674.984 1.094.264.419.469.898.615 1.436.146.529.219 1.14.219 1.832m-1.846-.561c0-.784-.141-1.47-.424-2.051-.292-.592-.661-1.08-1.107-1.463-.447-.392-.934-.684-1.463-.875s-1.03-.287-1.518-.287h-1.217l.055 2.693c.009.602.055 1.18.137 1.723.073.538.223 1.01.451 1.422.228.41.547.738.957.984.41.237.948.355 1.613.355.802 0 1.42-.214 1.859-.643.438-.438.656-1.06.656-1.859m1.572-20.645h-9.379c-.72 0-1.32.055-1.805.164-.483.1-.87.269-1.162.506-.301.237-.51.551-.629.943-.128.383-.191.861-.191 1.436 0 .583.105 1.11.314 1.586.201.465.497.866.889 1.203.383.328.861.583 1.436.766.565.182 1.22.273 1.955.273h8.572v2.461h-11.635c-.31 0-.633.005-.971.014-.346 0-.67.005-.971.014-.31.009-.574.018-.793.027s-.36.018-.424.027v-2.324c.046-.009.169-.018.369-.027a66.2 66.2 0 0 1 .697-.027c.255-.018.52-.032.793-.041.264-.009.488-.014.67-.014v-.041c-.428-.237-.816-.497-1.162-.779a4.118 4.118 0 0 1 -.875-.984c-.246-.374-.433-.802-.561-1.285-.137-.483-.205-1.04-.205-1.682 0-.82.1-1.53.301-2.119.201-.592.51-1.08.93-1.463.419-.383.962-.661 1.627-.834.656-.182 1.44-.273 2.352-.273h9.857v2.475m-7.465-8.066c.848 0 1.63-.059 2.338-.178.711-.128 1.33-.337 1.846-.629.51-.292.907-.674 1.189-1.148.283-.483.424-1.08.424-1.777 0-.875-.237-1.6-.711-2.188-.474-.592-1.2-.957-2.188-1.094l.164-2.488c.611.082 1.2.26 1.764.533.565.273 1.06.647 1.49 1.121.428.465.775 1.03 1.039 1.709.255.674.383 1.45.383 2.338 0 1.16-.196 2.14-.588 2.953-.392.811-.93 1.47-1.613 1.982-.693.501-1.5.866-2.434 1.094-.939.228-1.96.342-3.049.342-.993 0-1.87-.082-2.625-.246-.766-.164-1.43-.392-1.996-.684-.574-.301-1.05-.652-1.436-1.053-.392-.401-.702-.834-.93-1.299a5.7511 5.7511 0 0 1 -.506-1.49c-.109-.52-.164-1.04-.164-1.572 0-.829.114-1.57.342-2.215.228-.647.542-1.2.943-1.668.392-.474.857-.857 1.395-1.148.538-.292 1.12-.497 1.736-.615l.191 2.529c-.82.128-1.47.451-1.955.971-.483.52-.725 1.26-.725 2.215 0 .702.118 1.29.355 1.764.228.465.579.843 1.053 1.135.465.292 1.05.501 1.764.629.711.118 1.54.178 2.502.178m.588-14.014c.775 0 1.49-.078 2.147-.232.647-.164 1.21-.41 1.682-.738.465-.337.829-.766 1.094-1.285.255-.52.383-1.14.383-1.873 0-1.07-.214-1.92-.643-2.557-.428-.647-.971-1.08-1.627-1.313l.615-2.16c.41.155.825.374 1.244.656.41.273.784.643 1.121 1.107.328.465.602 1.05.82 1.75.21.693.314 1.53.314 2.516 0 2.19-.652 3.86-1.955 5.004-1.3 1.14-3.24 1.71-5.811 1.709-1.39 0-2.56-.173-3.514-.52-.966-.346-1.75-.82-2.352-1.422s-1.03-1.3-1.299-2.106c-.273-.802-.41-1.66-.41-2.57 0-1.24.201-2.27.602-3.104.401-.839.957-1.51 1.668-2.01.702-.51 1.53-.87 2.488-1.08.957-.219 1.99-.328 3.104-.328h.328v10.555m-1.887-8.012c-1.56.137-2.69.533-3.404 1.19-.72.656-1.08 1.6-1.08 2.83 0 .41.068.843.205 1.299.128.447.36.861.697 1.244s.798.706 1.381.971c.574.264 1.31.415 2.201.451v-7.984m1.49-13.303c-1.27 0-2.48-.096-3.637-.287-1.16-.191-2.27-.492-3.336-.902-1.07-.41-2.1-.934-3.104-1.572-1-.638-1.98-1.4-2.939-2.283v-2.379c.957.857 1.94 1.6 2.953 2.229 1 .62 2.04 1.13 3.117 1.531 1.07.401 2.18.702 3.336.902 1.16.191 2.37.287 3.637.287 1.27 0 2.48-.096 3.637-.287 1.16-.201 2.27-.501 3.35-.902s2.11-.911 3.117-1.531c1-.629 1.98-1.37 2.94-2.229v2.379c-.957.884-1.94 1.65-2.94 2.283-1 .638-2.04 1.16-3.104 1.572-1.07.41-2.17.711-3.322.902-1.16.191-2.37.287-3.65.287zm7.273-18.115h-9.379c-.72 0-1.32.046-1.805.137-.483.091-.87.246-1.162.465-.301.21-.51.488-.629.834-.128.346-.191.77-.191 1.272 0 .52.105.989.314 1.408.201.419.497.779.889 1.08.383.292.861.52 1.436.684.565.155 1.22.232 1.955.232h8.572v2.447h-11.635c-.31 0-.633.005-.971.014-.346 0-.67.005-.971.014-.31.009-.574.018-.793.027s-.36.018-.424.027v-2.324c.046-.009.169-.018.369-.027a66.2 66.2 0 0 1 .697-.027c.255-.018.52-.032.793-.041.264-.009.488-.014.67-.014v-.041c-.428-.219-.816-.456-1.162-.711s-.638-.551-.875-.889c-.246-.346-.433-.738-.561-1.176-.137-.447-.205-.962-.205-1.545 0-1.12.223-2.01.67-2.652.447-.656 1.16-1.11 2.133-1.367v-.041c-.428-.219-.816-.465-1.162-.738s-.638-.592-.875-.957c-.246-.365-.433-.775-.561-1.231-.137-.456-.205-.975-.205-1.559 0-.747.1-1.39.301-1.928.201-.547.51-.993.93-1.34.419-.346.962-.602 1.627-.766.656-.164 1.44-.246 2.352-.246h9.857v2.434h-9.379c-.72 0-1.32.046-1.805.137-.483.091-.87.246-1.162.465-.301.21-.51.488-.629.834-.128.346-.191.77-.191 1.272 0 .52.1.989.301 1.408.191.419.479.779.861 1.08.383.292.861.52 1.436.684.574.155 1.24.232 1.996.232h8.572v2.434m-7.219-20.439c1.28 0 2.49.096 3.65.287 1.15.191 2.26.492 3.322.902 1.07.41 2.1.934 3.104 1.572 1 .638 1.98 1.4 2.94 2.283v2.379c-.957-.857-1.94-1.6-2.94-2.215-1-.629-2.04-1.14-3.117-1.545-1.08-.401-2.19-.697-3.35-.889-1.16-.201-2.37-.301-3.637-.301-1.27 0-2.48.1-3.637.301-1.16.191-2.27.488-3.336.889-1.08.401-2.11.916-3.117 1.545-1.01.62-2 1.36-2.953 2.215v-2.379c.957-.884 1.94-1.65 2.939-2.283 1-.638 2.04-1.16 3.104-1.572 1.07-.41 2.18-.711 3.336-.902 1.16-.191 2.37-.287 3.637-.287z"/>
 <path d="m45 2v330.05m25-330.05v330.05m25-330.05v330.05m25-330.05v330.05m25-330.05v330.05m25-330.05v330.05m25-330.05v330.05m25-330.05v330.05m25-330.05v330.05m25-330.05v330.05m25-330.05v330.05m25-330.05v330.05m25-330.05v330.05m25-330.05v330.05m25-330.05v330.05m25-330.05v330.05m25-330.05v330.05m25-330.05v330.05m25-330.05v330.05m-449-325.05h468.41m-468.41 25h468.41m-468.41 25h468.41m-468.41 25h468.41m-468.41 25h468.41m-468.41 25h468.41m-468.41 25h468.41m-468.41 25h468.41m-468.41 25h468.41m-468.41 25h468.41m-468.41 25h468.41m-468.41 25h468.41m-468.41 25h468.41m-468.41 25h468.41" fill="#666" stroke="#646464" stroke-width="1pt"/>
 <path d="m44.15 332.36 150.8-250.51h125.01s19.3 67 74.906 100.2 99.7 150 99.709 149.81" fill="none" stroke="#000" stroke-width="3"/>
 <path d="m35.4097 328.1445c1.0167 0 1.874.0979 2.5699.293.6924.1901 1.253.4534 1.6833.7892.426.3308.731.72.9167 1.1722.1852.4507.2781.9343.2781 1.4427 0 .516-.0929.9947-.278 1.4426-.1853.4457-.4909.8354-.9168 1.1646-.426.3253-.9837.5825-1.6757.7738-.698.1852-1.5553.278-2.577.278-1.0661 0-1.951-.0928-2.645-.278-.7035-.1902-1.2586-.4507-1.6757-.7815-.4155-.3309-.709-.72-.8717-1.1723-.1703-.4506-.2555-.9398-.2555-1.4729 0-.5061.0852-.9782.2555-1.42.1655-.4458.4556-.8354.8717-1.1646.416-.3309.9727-.5936 1.6756-.7815.698-.1902 1.5773-.2858 2.6452-.2858m0 1.375c-.8409 0-1.5389.05-2.0961.15-.5606.1001-1.0058.248-1.3377.4436-.3358.195-.5716.4358-.7062.7216-.1402.2803-.2105.599-.2105.9617 0 .381.0703.7145.2105 1.0069.1401.2907.378.5358.7139.7364.3308.1951.7749.343 1.3377.4435.555.1 1.253.15 2.089.15.8133 0 1.4948-.05 2.051-.15.555-.105 1.0057-.2555 1.3448-.4506.3358-.2006.577-.4435.7287-.7288.1451-.2858.2176-.61.2176-.9766 0-.3556-.0725-.676-.2176-.9617-.15-.2858-.393-.526-.7287-.7216-.3408-.2006-.7914-.3534-1.3449-.4584-.555-.1105-1.242-.1654-2.051-.1654m5.2969-20.5899h-1.1498v-2.6974h-8.1447l1.7059 2.3896h-1.2773l-1.7207-2.5023v-1.2475h9.4374v-2.5775h1.1497v6.6345m-.0005-23.601h-.9541c-.588-.2556-1.1047-.566-1.5476-.9315-.4507-.3705-.8574-.7585-1.2173-1.1646a23.9133 23.9133 0 0 1 -1.0146-1.2025c-.3105-.4006-.621-.7639-.9315-1.0821-.3105-.3204-.6375-.577-.9766-.7738-.3407-.2006-.7255-.3006-1.1574-.3006-.3006 0-.566.045-.7892.1352-.2303.09-.4232.2203-.5787.3907s-.2704.376-.3457.616c-.0803.2353-.1204.4986-.1204.7893 0 .2704.0374.526.1127.7667.0753.2352.188.4457.338.6309s.338.338.5633.4583c.2204.1154.4781.1902.7738.2253l-.1275 1.3828a3.3005 3.3005 0 0 1 -1.0744-.3155c-.3358-.1654-.6265-.393-.8793-.6836-.2556-.2908-.4556-.6376-.6013-1.0442-.145-.4106-.2176-.8849-.2176-1.4202 0-.526.0626-.9947.188-1.4052s.3104-.7585.5561-1.037c.2457-.2859.5485-.5035.909-.654.3605-.1501.775-.2254 1.2476-.2254a2.686 2.686 0 0 1 1.0145.195c.3204.1254.6265.2958.9167.5112.2907.2105.5715.4556.8414.7364.2704.2803.5358.5716.7963.8794.2556.3055.5111.6155.7667.9243.2506.3106.5034.6046.759.8794.2555.2704.516.5133.7815.7287.2605.2155.5336.383.8188.5034v-5.5227h1.1498v7.0104m-2.9238-33.1088c.4858 0 .9178.0803 1.2998.2407.3808.1556.7034.3859.9694.6914.2605.3006.4611.676.6013 1.1272.1352.4457.2028.9563.2028 1.5328 0 .654-.0803 1.209-.2408 1.6608-.1654.4457-.3808.8134-.6463 1.1047-.2704.2907-.577.5083-.9167.654a4.0372 4.0372 0 0 1 -1.0667.2858l-.1275-1.3976c.2803-.0401.5358-.1127.7667-.2177.2302-.1104.428-.2577.5935-.4435.1654-.1852.293-.4133.383-.6837s.1353-.5935.1353-.9617c0-.6815-.1677-1.2146-.5035-1.6004-.3358-.3907-.8353-.588-1.4954-.5858-.3907 0-.7034.0879-.9392.2632-.2407.1704-.426.3858-.5562.6463-.1352.2556-.2253.5358-.2704.8414-.045.3006-.0676.577-.0676.8343v.7666h-1.1722v-.7364c0-.2555-.0253-.521-.0753-.7963-.055-.2754-.15-.526-.2858-.7513-.1401-.2303-.328-.4182-.5633-.5633-.2352-.15-.5359-.2254-.9019-.2254-.566 0-1.0112.1677-1.3376.5035-.3309.3308-.4958.8243-.4958 1.48 0 .5935.1528 1.0772.4584 1.4503.3055.3655.7364.577 1.2926.6386l-.105 1.3602c-.466-.055-.8738-.183-1.2173-.383-.3457-.2006-.632-.4534-.8568-.759-.2303-.3105-.4006-.665-.5111-1.0596-.1154-.3957-.1726-.8189-.1726-1.2624 0-.5935.0753-1.0991.2254-1.525.145-.426.3456-.775.6012-1.0443.2506-.2703.5463-.4682.8865-.5935.3407-.1302.7034-.1951 1.0892-.1951.3106 0 .599.0429.8717.1275a2.106 2.106 0 0 1 .7287.3985c.2154.1802.4007.4105.5562.6913.1555.2754.2731.61.3534.9992h.0302c.045-.426.1429-.797.293-1.1118.145-.3155.328-.5771.5484-.7815a2.1514 2.1514 0 0 1 .7513-.4584c.2803-.105.577-.1577.8865-.1577m.5281-22.7415h2.3967v1.2772h-2.3967v4.9891h-1.0519l-7.138-4.8462v-1.42h7.1232v-1.4878h1.0667zm-6.6648 1.2772c.0253.01.0753.0352.15.0753a18.18 18.18 0 0 0 .2408.1352c.0901.05.183.1028.278.1578.0902.05.1655.095.2254.1352l3.9971 2.7127c.0401.0253.0929.0626.1577.1126.0649.0451.133.093.2028.143.0649.05.1303.1.1951.15s.1154.0901.15.1203v-3.742h-5.598m5.6107-26.5699c.5309 0 1.0167.0802 1.4575.2407s.8189.3985 1.142.714c.3155.3154.5606.7089.7365 1.1799.1753.466.2632 1.0057.2632 1.6229 0 .555-.0648 1.0442-.1951 1.4575-.1302.4105-.3083.7584-.5336 1.0442-.2303.2858-.4985.5133-.804.6836-.3056.1655-.632.283-.9844.3534l-.1577-1.3673c.2006-.055.3957-.133.5859-.233.1852-.1.3533-.2353.5034-.4056.145-.1754.2632-.388.3533-.6387.0852-.2555.1275-.566.1275-.9243 0-.3507-.0527-.6705-.1577-.9541-.1104-.2858-.2704-.5287-.4809-.7288-.2105-.2055-.4682-.3632-.7738-.4731-.3055-.1105-.654-.1655-1.0519-.1655-.3253 0-.621.0528-.8941.1578-.2754.105-.5111.2555-.7062.4506-.2006.1951-.3556.4358-.466.7216-.1106.2803-.1655.599-.1655.9618 0 .2253.0203.433.0599.6237.0401.1902.095.3683.1654.5337.0704.1605.1528.3083.2479.4435.0901.1303.1852.2528.2858.3682v1.3223l-5.6953-.3534v-6.0184h1.1497v4.7863l3.3585.2028c-.1852-.2402-.343-.5408-.4732-.9019-.1352-.3605-.2028-.7914-.2028-1.285 0-.5259.0802-1.0001.2407-1.42.1605-.421.388-.7804.6837-1.0745.2907-.2956.6375-.5232 1.0442-.6836.4056-.1605.8518-.2402 1.3377-.2407m-.0116-25.9704c.531 0 1.0167.0753 1.4652.2254.4408.145.8189.3632 1.142.654.3155.2857.566.643.7442 1.0667.1753.426.2632.9178.2632 1.4729 0 .6155-.1176 1.154-.3534 1.6157-.2352.4611-.5715.8464-1.0145 1.1498-.4457.3055-.9892.5358-1.6306.6913-.6485.15-1.3795.2254-2.2016.2254-.9398 0-1.7697-.0852-2.4797-.2556-.709-.1753-1.3025-.426-1.7807-.7513-.476-.3253-.8353-.72-1.0744-1.187-.2402-.471-.3605-1.0003-.3605-1.5928 0-.3605.0373-.698.1126-1.0145.0753-.3154.1979-.599.3683-.8568.1654-.2605.3858-.4886.6611-.6837s.6155-.3506 1.0145-.466l.233 1.2926c-.4556.1402-.7858.3655-.9842.6766-.2056.3055-.3084.6594-.3084 1.0667 0 .3704.088.709.2633 1.0068.1753.3006.4386.555.7892.7667.3457.2105.7804.3731 1.3074.4886.526.1104 1.1377.1654 1.8411.1654-.4556-.2457-.8024-.5936-1.037-1.037-.2402-.4458-.3606-.9563-.3606-1.5329 0-.4808.0775-.9178.233-1.3074.1556-.3908.381-.7255.6766-.9991.2907-.2803.6485-.4958 1.0667-.6463.416-.1556.8849-.233 1.4053-.233m.06 1.375c-.3656 0-.698.045-.992.1352-.2957.0901-.5458.2253-.7514.4056-.2104.1802-.3704.4034-.4808.6688-.1154.2655-.1726.5716-.1726.9244 0 .2457.0374.4935.1127.7441a1.898 1.898 0 0 0 .3533.6837c.1605.2006.3732.3655.6387.4957.2654.1253.588.188.9694.188.3908 0 .7584-.05 1.097-.15.3358-.1.6265-.243.8793-.4282.2506-.1901.4485-.4182.5935-.6837s.2177-.566.2177-.8941c0-.3254-.055-.6155-.1654-.8717-.1155-.2605-.2781-.4808-.4886-.6611-.2155-.1803-.476-.3182-.7815-.4133s-.6485-.1429-1.0294-.1429m-6.0899-27.2788a69.3726 69.3726 0 0 0 2.3445 1.4651c.7475.4457 1.5004.8299 2.2616 1.1498.7584.3204 1.5333.5715 2.3368.7512.7969.1753 1.6432.2633 2.5473.2633v1.4124c-.8464 0-1.6763-.1-2.4869-.3006a14.757 14.757 0 0 1 -2.3967-.8117c-.7859-.3408-1.5553-.7365-2.3143-1.1871-.7584-.4507-1.5003-.9288-2.239-1.435v5.6882h-1.1497v-6.9956h1.097m6.5394-24.1056c.4507 0 .8684.0726 1.2476.2177a2.505 2.505 0 0 1 .9766.654c.2753.2907.4907.665.6463 1.1195.1555.4556.233.9947.233 1.6157s-.0775 1.1596-.233 1.6158c-.1556.4506-.3682.8244-.6386 1.1272-.2754.2957-.599.516-.9766.6611-.3809.1402-.7914.2105-1.2399.2105-.3858 0-.731-.0577-1.0294-.1726-.3006-.1203-.5605-.278-.7738-.4731-.2203-.2006-.3957-.426-.526-.6766-.1351-.2555-.2252-.5182-.2703-.7892h-.0302c-.0704.2957-.183.5606-.338.7964-.1556.2302-.3408.4259-.5562.5858-.2204.1556-.4633.2754-.7287.3605-.2655.0803-.5458.1204-.8414.1204-.3705 0-.72-.0703-1.0442-.2105-.3309-.145-.621-.3583-.864-.6386-.2506-.2803-.4457-.6265-.5858-1.0442-.1451-.416-.2177-.8958-.2177-1.4426 0-.5771.0726-1.0772.2177-1.4955.145-.4259.3429-.7749.5935-1.0518.2457-.2803.5336-.4886.864-.6238.3308-.1352.6814-.2028 1.0518-.2028.2908 0 .5661.0429.8343.1275.2655.0802.5084.2006.7287.3605.2155.1555.4007.3506.5562.5859.15.2302.2556.4984.3155.804h.0302c.05-.3056.1429-.588.2781-.8491a2.1686 2.1686 0 0 1 .526-.6765c.2154-.1902.4731-.3408.7738-.4507.3006-.1105.643-.1654 1.0216-.1654m-4.989 1.668c-.2655 0-.5084.0351-.7288.105-.2204.0648-.4083.1752-.5633.3308-.1605.1555-.283.3583-.3682.6084-.0902.2506-.1352.5605-.1352.9244 0 .3555.045.654.1352.9018.0851.2457.2077.4485.3682.6084.1555.1555.343.2682.5633.338.2204.0703.4633.105.7287.105.2105 0 .426-.0275.6463-.0825s.421-.1555.6013-.3006.328-.3457.4435-.6012.1726-.5826.1726-.9843c0-.426-.0577-.764-.1726-1.0217-.1154-.2605-.2627-.4584-.4435-.5935a1.3655 1.3655 0 0 0 -.6013-.2704 3.2216 3.2216 0 0 0 -.6463-.0676m4.8616-.2633a2.579 2.579 0 0 0 -.7364.105c-.2402.0703-.4507.1901-.631.3605-.1851.1704-.333.4007-.4434.6914-.1155.2858-.1726.643-.1726 1.0744 0 .3957.0577.7364.1726 1.0145.1104.2754.2577.5007.4435.6766.1852.1703.4006.2956.6463.3759.2407.0802.4907.1203.7512.1203.3254 0 .621-.04.8942-.1203.2655-.0803.4957-.2078.6914-.383.1901-.1754.338-.4057.4435-.6915.105-.2857.1577-.632.1577-1.037 0-.4105-.0527-.7584-.1577-1.037-.105-.2804-.2528-.5062-.4435-.6766-.1951-.1704-.4281-.2907-.699-.3605-.2754-.0753-.5826-.1127-.9168-.1127m-2.4291-27.3437c.9398 0 1.7696.0901 2.4797.2704.709.1753 1.297.4281 1.7658.759.471.3308.8244.7364 1.0596 1.2096.2352.471.3534 1.0002.3534 1.5927 0 .4056-.043.7694-.1276 1.097-.0802.3253-.2077.6155-.383.8716-.1753.2555-.4034.4731-.6837.654-.2803.1802-.621.3253-1.0145.4358l-.2028-1.2926c.4556-.1402.7914-.3584 1.0068-.654.2105-.3007.3155-.6815.3155-1.135 0-.3654-.0852-.6979-.2556-.999-.1753-.3056-.4358-.5661-.7815-.7739-.3457-.2154-.7804-.383-1.2997-.5034-.521-.1203-1.1322-.1852-1.8334-.195a2.093 2.093 0 0 1 .6309.4357c.1852.1803.343.388.4732.6238.1253.2303.2231.4809.2929.7513a3.501 3.501 0 0 1 .0978.8189c0 .4808-.0852.9178-.2555 1.3074-.1753.3858-.4183.7145-.7288.9843-.3105.2704-.6814.4809-1.1195.631-.4407.145-.9288.2176-1.4651.2176-.5458 0-1.0388-.0775-1.48-.233-.4408-.1605-.8134-.3908-1.1196-.6914-.3105-.3007-.5484-.6705-.7139-1.1047-.1654-.4408-.2478-.9398-.2478-1.4954 0-1.1761.4358-2.0664 1.3074-2.6748.8739-.6045 2.1819-.9068 3.9295-.909m-1.3074 1.4729c-.3908 0-.7584.0478-1.1047.1429-.3457.09-.6485.228-.9018.4132-.2556.1803-.4556.4056-.6013.6766-.15.2654-.2253.5715-.2253.9244 0 .3253.0577.621.1726.8793.1154.2605.2802.4809.4957.6611.2105.1803.4682.3204.7738.421.3056.095.6485.143 1.0217.143.3555 0 .687-.043.992-.1276.3055-.0901.5715-.2231.7963-.3984.2204-.1754.3957-.393.526-.654.1252-.2605.1879-.5661.1879-.909 0-.2507-.0429-.5035-.1275-.759a2.0464 2.0464 0 0 0 -.3908-.699c-.1753-.2106-.3957-.381-.6611-.5112-.2704-.1352-.588-.2028-.954-.2028m6.8142-14.8152h-1.1498v-2.6974h-8.1447l1.7059 2.3896h-1.2773l-1.7207-2.5023v-1.2475h9.4374v-2.5775h1.1497v6.6345m-5.2974-15.3509c1.0167 0 1.874.0979 2.5699.293.6924.1901 1.253.4534 1.6833.7892.426.3308.731.72.9167 1.1722.1852.4507.2781.9343.2781 1.4427 0 .516-.0929.9947-.278 1.4426-.1853.4457-.4909.8354-.9168 1.1646-.426.3253-.9837.5825-1.6757.7738-.698.1852-1.5553.278-2.577.278-1.0661 0-1.951-.0928-2.645-.278-.7035-.1902-1.2586-.4507-1.6757-.7815-.4155-.3309-.709-.72-.8717-1.1723-.1703-.4506-.2555-.9398-.2555-1.4729 0-.5061.0852-.9782.2555-1.42.1655-.4458.4556-.8354.8717-1.1646.416-.3309.9727-.5936 1.6756-.7815.698-.1902 1.5773-.2858 2.6452-.2858m0 1.375c-.8409 0-1.5389.05-2.0961.15-.5606.1-1.0058.248-1.3377.4436-.3358.195-.5716.4358-.7062.7216-.1402.2803-.2105.599-.2105.9617 0 .3809.0703.7145.2105 1.0069.1401.2907.378.5358.7139.7364.3308.1951.7749.343 1.3377.4435.555.1 1.253.15 2.089.15.8133 0 1.4948-.05 2.051-.15.555-.105 1.0057-.2555 1.3448-.4506.3358-.2006.577-.4435.7287-.7288.1451-.2858.2176-.61.2176-.9766 0-.3556-.0725-.676-.2176-.9617-.15-.2858-.393-.526-.7287-.7216-.3408-.2006-.7914-.3534-1.3449-.4584-.555-.1105-1.242-.1654-2.051-.1654m5.2958-12.0236h-1.1498v-2.6974h-8.1447l1.7059 2.3896h-1.2773l-1.7207-2.5023v-1.2475h9.4374v-2.5775h1.1497v6.6345m0-7.4237h-1.1497v-2.6974h-8.1448l1.706 2.3896h-1.2773l-1.7207-2.5022v-1.2476h9.4373v-2.5775h1.1498v6.6345"/>
 <g stroke-width=".55">
  <text x="40.17" y="343.88">0</text>
  <text x="66.17" y="343.88">1</text>
  <text x="90.17" y="343.88">2</text>
  <text x="116.17" y="343.88">3</text>
  <text x="140.17" y="343.88">4</text>
  <text x="164.17" y="343.88">5</text>
  <text x="190.17" y="343.88">6</text>
  <text x="216.17" y="343.88">7</text>
  <text x="240.17" y="343.88">8</text>
  <text x="266.17" y="343.88">9</text>
  <text x="286.17" y="343.88">10</text>
  <text x="312.17" y="343.88">11</text>
  <text x="336.17" y="343.88">12</text>
  <text x="360.17" y="343.88">13</text>
  <text x="386.17" y="343.88">14</text>
  <text x="410.17" y="343.88">15</text>
  <text x="436.17" y="343.88">16</text>
  <text x="460.17" y="343.88">17</text>
 </g>
</svg>
