<?xml version="1.0" encoding="UTF-8"?>
<svg width="350" height="600" version="1.1" xmlns="http://www.w3.org/2000/svg" xmlns:xlink="http://www.w3.org/1999/xlink">
	<g id="a" stroke="#000">
		<path d="m60 60v434c-4 1-8 5-8 10v34c0 6 5 10 10.5 10s10.5-4 10.5-10v-34c0-5-4-9-8-10v-434c0-2-1-3-2.5-3s-2.5 1-2.5 3z" fill="none"/>
		<path d="m60 315v179c-4 1-8 5-8 10v34c0 6 5 10 10.5 10s10.5-4 10.5-10v-34c0-5-4-9-8-10v-179z" fill="#f00"/>
		<rect x="30" y="20" width="65" height="535" rx="30" ry="30" fill="none"/>
	</g>
	<use transform="translate(225)" xlink:href="#a"/>
	<path d="m40 475h15" stroke="#000" stroke-width=".5"/>
	<use transform="translate(0,360)" xlink:href="#d"/>
	<g id="c">
		<g id="h">
			<g id="d">
				<g stroke="#000" stroke-width=".5">
					<path d="m40 85h15"/>
					<path d="m49 91h6"/>
					<path d="m49 97h6"/>
					<path d="m49 103h6"/>
					<path d="m49 109h6"/>
				</g>
			</g>
			<use transform="translate(0,30)" xlink:href="#d"/>
		</g>
		<use transform="translate(0,60)" xlink:href="#h"/>
	</g>
	<use transform="translate(0,120)" xlink:href="#c"/>
	<use transform="translate(0,240)" xlink:href="#c"/>
	<path d="m310 471.67h-15" stroke="#000" stroke-width=".5"/>
	<g id="b">
		<g id="e">
			<g id="f">
				<g id="g">
					<g stroke="#000" stroke-width=".5">
					<path d="m310 71.667h-15"/>
					<path d="m301 75h-6"/>
					<path d="m301 78.333h-6"/>
					<path d="m301 81.667h-6"/>
					<path d="m301 85h-6"/>
					</g>
				</g>
				<use transform="translate(0,16.667)" xlink:href="#g"/>
			</g>
			<use transform="translate(0,33.333)" xlink:href="#f"/>
		</g>
		<use transform="translate(0,66.663)" xlink:href="#e"/>
	</g>
	<use transform="translate(0 133.33)" xlink:href="#b"/>
	<use transform="translate(0 266.67)" xlink:href="#b"/>
	<g stroke="#000" stroke-width=".5">
		<path d="m95 85h17"/>
		<path d="m95 385h28"/>
		<path d="m238 85h17"/>
		<path d="m227 385h28"/>
	</g>
	<g font-family="DejaVu Sans" text-anchor="middle">
		<g>
			<g font-size="16">
				<text x="62" y="47">°C</text>
				<text x="288" y="47">°F</text>
				<text x="62" y="580">CELSIUS</text>
				<text x="287" y="580">FAHRENHEIT</text>
				<text x="175" y="91">100°C -- 212°F</text>
				<text x="175" y="391">0°C -- 32°F</text>
				<text style="line-height:3"><tspan x="175" y="65">BOILING POINT</tspan><tspan x="175" y="113">OF WATER</tspan></text>
				<text style="line-height:3"><tspan x="177" y="365">FREEZING POINT</tspan><tspan x="177" y="413">OF WATER</tspan></text>
			</g>
			<g font-size="13">
				<text x="80" y="90">100</text>
				<text x="80" y="120">90</text>
				<text x="80" y="150">80</text>
				<text x="80" y="180">70</text>
				<text x="80" y="210">60</text>
				<text x="80" y="240">50</text>
				<text x="80" y="270">40</text>
				<text x="80" y="300">30</text>
				<text x="80" y="330">20</text>
				<text x="80" y="360">10</text>
				<text x="80" y="390">0</text>
				<text x="270" y="76">220</text>
				<text x="270" y="93">210</text>
				<text x="270" y="110">200</text>
				<text x="270" y="126">190</text>
				<text x="270" y="143">180</text>
				<text x="270" y="160">170</text>
				<text x="270" y="176">160</text>
				<text x="270" y="193">150</text>
				<text x="270" y="210">140</text>
				<text x="270" y="226">130</text>
				<text x="270" y="243">120</text>
				<text x="270" y="260">110</text>
				<text x="270" y="276">100</text>
				<text x="270" y="293">90</text>
				<text x="270" y="310">80</text>
				<text x="270" y="326">70</text>
				<text x="270" y="343">60</text>
				<text x="270" y="360">50</text>
				<text x="270" y="376">40</text>
				<text x="270" y="393">30</text>
				<text x="270" y="410">20</text>
				<text x="270" y="426">10</text>
				<text x="270" y="443">0</text>
			</g>
		</g>
		<g fill="#f00" font-size="13">
			<text x="80" y="420">10</text>
			<text x="80" y="450">20</text>
			<text x="80" y="480">30</text>
			<text x="270" y="460">10</text>
			<text x="270" y="476">20</text>
		</g>
	</g>
</svg>